<?xml version="1.0" encoding="utf-8"?>
<!-- Generator: Adobe Illustrator 24.3.0, SVG Export Plug-In . SVG Version: 6.00 Build 0)  -->
<svg version="1.1" id="Capa_1" xmlns="http://www.w3.org/2000/svg" xmlns:xlink="http://www.w3.org/1999/xlink" x="0px" y="0px"
	 viewBox="0 0 300 300" style="enable-background:new 0 0 300 300;" xml:space="preserve">
<style type="text/css">
	.st0{opacity:0.88;fill:#FFFFFF;}
	.st1{fill:#0FEFEF;}
	.st2{fill-rule:evenodd;clip-rule:evenodd;fill:#E09B2D;}
	.st3{fill:#6B6B6B;}
	.st4{fill:#1126ED;}
	.st5{fill:#ED9811;}
	.st6{fill:#EF560A;}
	.st7{fill-rule:evenodd;clip-rule:evenodd;fill:#7FEEF7;}
	.st8{fill:#3D56E8;}
	.st9{fill:#7FEEF7;}
	.st10{fill-rule:evenodd;clip-rule:evenodd;fill:#ED9811;}
	.st11{fill-rule:evenodd;clip-rule:evenodd;fill:#F7E037;}
	.st12{fill:#F45338;}
	.st13{fill:#F7E037;}
	.st14{fill-rule:evenodd;clip-rule:evenodd;fill:#F45338;}
	.st15{fill-rule:evenodd;clip-rule:evenodd;fill:none;}
	.st16{fill-rule:evenodd;clip-rule:evenodd;fill:#FFFFFF;stroke:#EF560A;stroke-width:18;stroke-miterlimit:10;}
	.st17{fill-rule:evenodd;clip-rule:evenodd;fill:#FFFFFF;}
	.st18{fill-rule:evenodd;clip-rule:evenodd;fill:#FFFFFF;stroke:#3D56E8;stroke-width:18;stroke-miterlimit:10;}
	.st19{fill-rule:evenodd;clip-rule:evenodd;fill:#DB881B;}
	.st20{fill:#050505;}
	.st21{fill-rule:evenodd;clip-rule:evenodd;fill:#EF560A;}
	.st22{fill:#F2AD49;}
	.st23{fill:#EAA542;}
	.st24{fill:#282828;}
	.st25{fill:#111111;}
	.st26{fill:#212121;}
	.st27{opacity:0.8;fill:#FFFFFF;}
	.st28{fill:none;}
	.st29{fill:#EA8F0C;}
	.st30{fill:#FFFFFF;}
	.st31{fill-rule:evenodd;clip-rule:evenodd;}
</style>
<g>
	<path class="st5" d="M245.52,285.5H54.48c-22.08,0-39.98-17.9-39.98-39.98V54.48c0-22.08,17.9-39.98,39.98-39.98h191.04
		c22.08,0,39.98,17.9,39.98,39.98v191.04C285.5,267.6,267.6,285.5,245.52,285.5z"/>
	<path d="M150,37.34c62.22,0,112.66,50.44,112.66,112.66S212.22,262.66,150,262.66S37.34,212.22,37.34,150S87.78,37.34,150,37.34z
		 M150,71.14c-43.55,0-78.86,35.31-78.86,78.86c0,20.86,8.11,39.85,21.34,53.95l1.76,1.8l15.93-15.92
		C99.98,179.63,93.67,165.55,93.67,150c0-31.1,25.22-56.33,56.33-56.33c5.05,0,9.94,0.66,14.59,1.92l17.61-17.6
		C172.36,73.6,161.47,71.14,150,71.14z M222.01,117.81l-17.59,17.6c1.24,4.65,1.9,9.54,1.9,14.59c0,15.55-6.31,29.63-16.49,39.83
		l15.93,15.93c14.26-14.27,23.09-33.99,23.09-55.76C228.86,138.53,226.41,127.64,222.01,117.81z M197.79,86.27l-41.96,41.95
		c-1.86-0.5-3.81-0.75-5.82-0.75c-12.45,0-22.53,10.08-22.53,22.53s10.08,22.53,22.53,22.53s22.53-10.08,22.53-22.53
		c0-2.02-0.26-3.97-0.75-5.82l41.95-41.98L197.8,86.27H197.79z"/>
</g>
</svg>
