<?xml version="1.0" encoding="utf-8"?>
<!-- Generator: Adobe Illustrator 24.3.0, SVG Export Plug-In . SVG Version: 6.00 Build 0)  -->
<svg version="1.1" id="Capa_1" xmlns="http://www.w3.org/2000/svg" xmlns:xlink="http://www.w3.org/1999/xlink" x="0px" y="0px"
	 viewBox="0 0 32 32" style="enable-background:new 0 0 32 32;" xml:space="preserve">
<style type="text/css">
	.st0{fill:#F2AD49;}
	.st1{fill:#FFFFFF;}
	.st2{opacity:0.88;fill:#FFFFFF;}
	.st3{fill:#0FEFEF;}
	.st4{fill-rule:evenodd;clip-rule:evenodd;fill:#E09B2D;}
	.st5{fill:#6B6B6B;}
	.st6{fill:#1126ED;}
	.st7{fill:#ED9811;}
	.st8{fill:#EF560A;}
	.st9{fill-rule:evenodd;clip-rule:evenodd;fill:#7FEEF7;}
	.st10{fill:#3D56E8;}
	.st11{fill:#7FEEF7;}
	.st12{fill-rule:evenodd;clip-rule:evenodd;fill:#ED9811;}
	.st13{fill-rule:evenodd;clip-rule:evenodd;fill:#F7E037;}
	.st14{fill:#F45338;}
	.st15{fill:#F7E037;}
	.st16{fill-rule:evenodd;clip-rule:evenodd;fill:#F45338;}
	.st17{fill-rule:evenodd;clip-rule:evenodd;fill:none;}
	.st18{fill-rule:evenodd;clip-rule:evenodd;fill:#FFFFFF;stroke:#EF560A;stroke-width:18;stroke-miterlimit:10;}
	.st19{fill-rule:evenodd;clip-rule:evenodd;fill:#FFFFFF;}
	.st20{fill-rule:evenodd;clip-rule:evenodd;fill:#FFFFFF;stroke:#3D56E8;stroke-width:18;stroke-miterlimit:10;}
	.st21{fill-rule:evenodd;clip-rule:evenodd;fill:#DB881B;}
	.st22{fill:#050505;}
	.st23{fill-rule:evenodd;clip-rule:evenodd;fill:#EF560A;}
	.st24{fill:#EAA542;}
	.st25{fill:#282828;}
	.st26{fill:#111111;}
	.st27{fill:#212121;}
	.st28{opacity:0.8;fill:#FFFFFF;}
	.st29{fill:none;}
	.st30{fill:#EA8F0C;}
	.st31{opacity:0.64;fill:#FFFFFF;}
	.st32{fill-rule:evenodd;clip-rule:evenodd;}
</style>
<path class="st7" d="M26.87,31.11H5.13c-2.34,0-4.24-1.9-4.24-4.24l0-21.74c0-2.34,1.9-4.24,4.24-4.24l21.74,0
	c2.34,0,4.24,1.9,4.24,4.24v21.74C31.11,29.21,29.21,31.11,26.87,31.11z"/>
<g id="Layer_x0020_1_41_">
	<g>
		<path class="st19" d="M12.31,30.79l-0.04,0c-0.07-0.07-0.14-0.19-0.12-0.37l1.86-11.64l-3.53-0.61c-0.08-0.01-0.15-0.07-0.14-0.19
			c-0.03-0.12-0.01-0.24,0.03-0.29l8.85-16.35c0.09-0.11,0.17-0.16,0.24-0.09c0.11,0.07,0.14,0.19,0.12,0.37l-2.45,11.7l4.36,0.46
			c0.08,0.01,0.11,0.07,0.14,0.19c0.03,0.12,0.01,0.24-0.03,0.29l-9.09,16.44C12.48,30.75,12.39,30.8,12.31,30.79z"/>
	</g>
</g>
</svg>
