<?xml version="1.0" encoding="utf-8"?>
<!-- Generator: Adobe Illustrator 24.3.0, SVG Export Plug-In . SVG Version: 6.00 Build 0)  -->
<svg version="1.1" id="Capa_1" xmlns="http://www.w3.org/2000/svg" xmlns:xlink="http://www.w3.org/1999/xlink" x="0px" y="0px"
	 viewBox="0 0 436 106" style="enable-background:new 0 0 436 106;" xml:space="preserve">
<style type="text/css">
	.st0{opacity:0.88;fill:#FFFFFF;}
	.st1{fill:#0FEFEF;}
	.st2{fill-rule:evenodd;clip-rule:evenodd;fill:#E09B2D;}
	.st3{fill:#6B6B6B;}
	.st4{fill:#1126ED;}
	.st5{fill:#ED9811;}
	.st6{fill:#EF560A;}
	.st7{fill-rule:evenodd;clip-rule:evenodd;fill:#7FEEF7;}
	.st8{fill:#3D56E8;}
	.st9{fill:#7FEEF7;}
	.st10{fill-rule:evenodd;clip-rule:evenodd;fill:#ED9811;}
	.st11{fill-rule:evenodd;clip-rule:evenodd;fill:#F7E037;}
	.st12{fill:#F45338;}
	.st13{fill:#F7E037;}
	.st14{fill-rule:evenodd;clip-rule:evenodd;fill:#F45338;}
	.st15{fill-rule:evenodd;clip-rule:evenodd;fill:none;}
	.st16{fill-rule:evenodd;clip-rule:evenodd;fill:#FFFFFF;stroke:#EF560A;stroke-width:18;stroke-miterlimit:10;}
	.st17{fill-rule:evenodd;clip-rule:evenodd;fill:#FFFFFF;}
	.st18{fill-rule:evenodd;clip-rule:evenodd;fill:#FFFFFF;stroke:#3D56E8;stroke-width:18;stroke-miterlimit:10;}
	.st19{fill-rule:evenodd;clip-rule:evenodd;fill:#DB881B;}
	.st20{fill:#050505;}
	.st21{fill-rule:evenodd;clip-rule:evenodd;fill:#EF560A;}
	.st22{fill:#F2AD49;}
	.st23{fill:#EAA542;}
	.st24{fill:#282828;}
	.st25{fill:#111111;}
	.st26{fill:#212121;}
	.st27{opacity:0.8;fill:#FFFFFF;}
	.st28{fill:none;}
	.st29{fill:#EA8F0C;}
	.st30{fill:#FFFFFF;}
	.st31{fill-rule:evenodd;clip-rule:evenodd;}
</style>
<g>
	<g>
		<g>
			<g id="Layer_x0020_1_37_">
				<g>
					<path class="st10" d="M131.66,92.35l-0.11-0.01c-0.2-0.19-0.39-0.55-0.33-1.05l5.31-33.19l-10.06-1.74
						c-0.22-0.02-0.42-0.21-0.39-0.55c-0.07-0.35-0.04-0.68,0.09-0.83l25.22-46.61c0.26-0.31,0.49-0.45,0.7-0.26
						c0.31,0.2,0.39,0.55,0.33,1.05l-7,33.35l12.44,1.32c0.22,0.02,0.31,0.2,0.39,0.55s0.04,0.68-0.09,0.83l-25.91,46.87
						C132.12,92.23,131.88,92.37,131.66,92.35z"/>
				</g>
			</g>
			<g>
				<path class="st5" d="M30.97,20c3.67,0,7.11,0.69,10.31,2.06c3.21,1.38,6.01,3.26,8.41,5.66c2.4,2.4,4.28,5.2,5.66,8.41
					c1.38,3.21,2.06,6.65,2.06,10.32v40.2H43.88V73.32H18.06v13.33H4.52v-40.2c0-3.67,0.69-7.11,2.06-10.32
					c1.38-3.21,3.26-6.01,5.66-8.41c2.4-2.4,5.2-4.29,8.41-5.66C23.86,20.69,27.3,20,30.97,20z M43.88,46.45
					c0-1.76-0.34-3.44-1.01-5.03c-0.67-1.59-1.59-2.96-2.75-4.13c-1.16-1.16-2.54-2.08-4.13-2.75c-1.59-0.67-3.26-1-5.03-1
					c-1.76,0-3.44,0.34-5.03,1c-1.59,0.67-2.96,1.59-4.12,2.75c-1.16,1.16-2.08,2.54-2.75,4.13s-1,3.26-1,5.03v13.33h25.81V46.45z"
					/>
				<path class="st5" d="M94.71,22.65c4.06,1.76,7.58,4.14,10.58,7.14c3,3,5.38,6.52,7.14,10.58c1.76,4.06,2.65,8.38,2.65,12.96
					c0,4.58-0.87,8.89-2.59,12.91c-1.73,4.02-4.09,7.55-7.09,10.58c-3,3.03-6.51,5.43-10.53,7.19c-4.02,1.76-8.32,2.64-12.91,2.64
					H62.71V73.22h19.15c2.75,0,5.32-0.53,7.72-1.59c2.4-1.06,4.5-2.49,6.29-4.28s3.23-3.9,4.29-6.29c1.06-2.4,1.59-4.97,1.59-7.72
					c0-2.75-0.53-5.33-1.59-7.72c-1.06-2.4-2.49-4.5-4.29-6.29c-1.8-1.8-3.9-3.23-6.29-4.28c-2.4-1.06-4.97-1.59-7.72-1.59H62.71V20
					h19.04C86.33,20,90.65,20.89,94.71,22.65z"/>
			</g>
			<g>
				<path d="M179.51,74.58c-0.41-0.47-0.97-0.84-1.66-1.13c-0.7-0.29-1.47-0.43-2.34-0.43c-1.31,0-2.25,0.24-2.85,0.73
					c-0.59,0.49-0.89,1.15-0.89,1.99c0,0.44,0.08,0.8,0.24,1.08c0.16,0.28,0.4,0.53,0.74,0.73c0.34,0.21,0.76,0.38,1.28,0.54
					c0.52,0.15,1.12,0.3,1.82,0.45c0.78,0.17,1.48,0.35,2.1,0.55c0.62,0.2,1.15,0.45,1.59,0.76c0.44,0.31,0.78,0.69,1.01,1.13
					c0.23,0.45,0.35,1,0.35,1.66c0,0.67-0.13,1.26-0.39,1.75c-0.26,0.49-0.62,0.91-1.09,1.24c-0.47,0.33-1.02,0.57-1.67,0.73
					c-0.64,0.16-1.35,0.24-2.1,0.24c-2.3,0-4.25-0.71-5.88-2.12l0.7-1.17c0.54,0.56,1.26,1.04,2.16,1.43
					c0.91,0.39,1.92,0.59,3.03,0.59c1.17,0,2.08-0.21,2.74-0.63s0.99-1.05,0.99-1.91c0-0.45-0.09-0.83-0.28-1.14
					c-0.19-0.31-0.46-0.58-0.83-0.8s-0.84-0.42-1.39-0.59s-1.2-0.33-1.93-0.5c-0.77-0.18-1.44-0.36-2.02-0.56
					c-0.58-0.19-1.06-0.43-1.45-0.72c-0.39-0.29-0.69-0.64-0.89-1.04c-0.2-0.41-0.3-0.9-0.3-1.49c0-0.67,0.13-1.28,0.38-1.8
					c0.25-0.53,0.61-0.97,1.07-1.32s1.01-0.62,1.65-0.8c0.64-0.19,1.34-0.28,2.11-0.28c0.96,0,1.83,0.15,2.59,0.44
					c0.76,0.3,1.45,0.71,2.07,1.25L179.51,74.58z"/>
				<path d="M189.46,86.58c-1.02,0-1.95-0.21-2.79-0.63c-0.85-0.42-1.57-0.98-2.18-1.67c-0.61-0.69-1.07-1.49-1.4-2.38
					s-0.49-1.81-0.49-2.74c0-0.98,0.17-1.91,0.53-2.8c0.35-0.89,0.83-1.68,1.45-2.37c0.62-0.69,1.35-1.23,2.19-1.64
					s1.75-0.61,2.72-0.61c1.02,0,1.95,0.22,2.79,0.65s1.57,1,2.16,1.7s1.06,1.49,1.39,2.38s0.49,1.79,0.49,2.71
					c0,0.98-0.18,1.91-0.53,2.8c-0.35,0.89-0.83,1.68-1.44,2.36s-1.34,1.22-2.18,1.63S190.44,86.58,189.46,86.58z M184.04,79.16
					c0,0.8,0.13,1.56,0.39,2.3s0.63,1.39,1.11,1.96c0.48,0.57,1.05,1.02,1.71,1.36c0.66,0.34,1.4,0.51,2.21,0.51
					c0.82,0,1.57-0.18,2.25-0.54c0.67-0.36,1.24-0.83,1.71-1.4c0.47-0.58,0.83-1.23,1.08-1.96c0.25-0.73,0.38-1.47,0.38-2.23
					c0-0.8-0.13-1.56-0.4-2.3c-0.27-0.74-0.64-1.38-1.12-1.95s-1.05-1.01-1.71-1.35c-0.66-0.34-1.39-0.5-2.19-0.5
					c-0.82,0-1.57,0.18-2.25,0.53c-0.67,0.35-1.24,0.81-1.71,1.39c-0.47,0.58-0.83,1.23-1.08,1.96S184.04,78.4,184.04,79.16z"/>
				<path d="M199.11,86.48V71.84h1.42V85.2h8.47v1.28H199.11z"/>
				<path d="M216.31,85.28c0.92,0,1.69-0.18,2.3-0.53s1.1-0.81,1.46-1.38c0.37-0.57,0.62-1.22,0.76-1.95s0.22-1.46,0.22-2.21v-7.38
					h1.44v7.38c0,0.99-0.11,1.93-0.33,2.81c-0.22,0.89-0.57,1.67-1.06,2.34c-0.49,0.67-1.12,1.21-1.91,1.61
					c-0.78,0.4-1.74,0.6-2.87,0.6c-1.17,0-2.14-0.21-2.93-0.63c-0.78-0.42-1.41-0.97-1.9-1.66c-0.48-0.69-0.82-1.47-1.03-2.35
					c-0.21-0.88-0.31-1.79-0.31-2.72v-7.38h1.42v7.38c0,0.77,0.07,1.52,0.23,2.25c0.15,0.73,0.41,1.37,0.77,1.94
					c0.36,0.56,0.85,1.02,1.45,1.36C214.64,85.11,215.4,85.28,216.31,85.28z"/>
				<path d="M225.01,79.06c0-0.88,0.15-1.76,0.46-2.63c0.31-0.87,0.76-1.65,1.35-2.34c0.59-0.69,1.32-1.25,2.19-1.68
					c0.87-0.43,1.85-0.65,2.95-0.65c1.31,0,2.42,0.3,3.34,0.89c0.92,0.59,1.61,1.36,2.06,2.31l-1.15,0.7
					c-0.23-0.48-0.52-0.89-0.85-1.22c-0.33-0.33-0.69-0.6-1.07-0.8s-0.78-0.35-1.2-0.44c-0.41-0.09-0.82-0.13-1.22-0.13
					c-0.88,0-1.66,0.18-2.33,0.54s-1.24,0.82-1.7,1.4c-0.46,0.58-0.81,1.23-1.04,1.95s-0.35,1.45-0.35,2.2
					c0,0.81,0.14,1.59,0.42,2.33s0.67,1.4,1.15,1.97s1.06,1.02,1.73,1.36c0.67,0.34,1.39,0.51,2.18,0.51c0.41,0,0.83-0.05,1.27-0.16
					c0.43-0.1,0.85-0.27,1.26-0.49c0.4-0.23,0.78-0.51,1.12-0.85s0.63-0.75,0.87-1.23l1.2,0.62c-0.23,0.55-0.56,1.03-0.99,1.45
					c-0.43,0.42-0.9,0.77-1.42,1.06c-0.52,0.29-1.07,0.51-1.66,0.66c-0.58,0.15-1.16,0.23-1.72,0.23c-1,0-1.92-0.22-2.76-0.66
					c-0.84-0.44-1.56-1.01-2.17-1.72c-0.6-0.71-1.07-1.51-1.41-2.41C225.18,80.91,225.01,79.99,225.01,79.06z"/>
				<path d="M240.16,86.48V71.86h1.42v14.62H240.16z"/>
				<path d="M251.23,86.58c-1.02,0-1.95-0.21-2.79-0.63c-0.85-0.42-1.57-0.98-2.18-1.67c-0.6-0.69-1.07-1.49-1.4-2.38
					s-0.5-1.81-0.5-2.74c0-0.98,0.18-1.91,0.53-2.8c0.35-0.89,0.84-1.68,1.46-2.37c0.62-0.69,1.35-1.23,2.19-1.64
					c0.84-0.41,1.74-0.61,2.72-0.61c1.02,0,1.95,0.22,2.79,0.65c0.85,0.43,1.57,1,2.17,1.7s1.06,1.49,1.39,2.38s0.5,1.79,0.5,2.71
					c0,0.98-0.18,1.91-0.53,2.8c-0.35,0.89-0.83,1.68-1.44,2.36c-0.61,0.68-1.34,1.22-2.17,1.63
					C253.11,86.38,252.21,86.58,251.23,86.58z M245.81,79.16c0,0.8,0.13,1.56,0.39,2.3c0.26,0.74,0.63,1.39,1.11,1.96
					c0.48,0.57,1.05,1.02,1.71,1.36c0.66,0.34,1.39,0.51,2.21,0.51c0.83,0,1.57-0.18,2.25-0.54s1.24-0.83,1.71-1.4
					s0.83-1.23,1.08-1.96c0.25-0.73,0.38-1.47,0.38-2.23c0-0.8-0.13-1.56-0.4-2.3s-0.64-1.38-1.12-1.95
					c-0.48-0.56-1.05-1.01-1.71-1.35c-0.66-0.34-1.39-0.5-2.19-0.5c-0.82,0-1.57,0.18-2.25,0.53c-0.67,0.35-1.24,0.81-1.71,1.39
					c-0.47,0.58-0.83,1.23-1.08,1.96C245.94,77.66,245.81,78.4,245.81,79.16z"/>
				<path d="M262.3,74.52v11.96h-1.42V71.84h1.11l9.69,12.18V71.86h1.42v14.62h-1.24L262.3,74.52z"/>
				<path d="M286.65,85.2v1.28h-9.83V71.84h9.65v1.28h-8.22v5.28h7.17v1.22h-7.17v5.59H286.65z"/>
				<path d="M297.81,74.58c-0.41-0.47-0.97-0.84-1.66-1.13c-0.7-0.29-1.47-0.43-2.34-0.43c-1.31,0-2.25,0.24-2.85,0.73
					c-0.59,0.49-0.89,1.15-0.89,1.99c0,0.44,0.08,0.8,0.24,1.08c0.16,0.28,0.4,0.53,0.74,0.73c0.34,0.21,0.76,0.38,1.28,0.54
					c0.52,0.15,1.12,0.3,1.82,0.45c0.78,0.17,1.48,0.35,2.1,0.55c0.62,0.2,1.15,0.45,1.59,0.76c0.44,0.31,0.78,0.69,1.01,1.13
					c0.23,0.45,0.35,1,0.35,1.66c0,0.67-0.13,1.26-0.39,1.75c-0.26,0.49-0.62,0.91-1.09,1.24c-0.47,0.33-1.02,0.57-1.67,0.73
					c-0.64,0.16-1.35,0.24-2.1,0.24c-2.3,0-4.25-0.71-5.88-2.12l0.7-1.17c0.54,0.56,1.26,1.04,2.16,1.43
					c0.91,0.39,1.92,0.59,3.03,0.59c1.17,0,2.08-0.21,2.74-0.63s0.99-1.05,0.99-1.91c0-0.45-0.09-0.83-0.28-1.14
					c-0.19-0.31-0.46-0.58-0.83-0.8s-0.84-0.42-1.39-0.59s-1.2-0.33-1.93-0.5c-0.77-0.18-1.44-0.36-2.02-0.56
					c-0.58-0.19-1.06-0.43-1.45-0.72c-0.39-0.29-0.69-0.64-0.89-1.04c-0.2-0.41-0.3-0.9-0.3-1.49c0-0.67,0.13-1.28,0.38-1.8
					c0.25-0.53,0.61-0.97,1.07-1.32s1.01-0.62,1.65-0.8c0.64-0.19,1.34-0.28,2.11-0.28c0.96,0,1.83,0.15,2.59,0.44
					c0.76,0.3,1.45,0.71,2.07,1.25L297.81,74.58z"/>
				<path d="M316.94,85.2v1.28h-9.83V71.84h9.65v1.28h-8.22v5.28h7.17v1.22h-7.17v5.59H316.94z"/>
				<path d="M319.74,86.48V71.84h1.42V85.2h8.47v1.28H319.74z"/>
				<path d="M341.74,85.2v1.28h-9.83V71.84h9.65v1.28h-8.23v5.28h7.18v1.22h-7.18v5.59H341.74z"/>
				<path d="M343.6,79.06c0-0.88,0.15-1.76,0.46-2.63c0.31-0.87,0.76-1.65,1.35-2.34s1.32-1.25,2.19-1.68s1.85-0.65,2.95-0.65
					c1.3,0,2.42,0.3,3.34,0.89c0.92,0.59,1.61,1.36,2.06,2.31l-1.15,0.7c-0.23-0.48-0.52-0.89-0.85-1.22
					c-0.33-0.33-0.69-0.6-1.07-0.8s-0.78-0.35-1.2-0.44c-0.41-0.09-0.82-0.13-1.22-0.13c-0.88,0-1.66,0.18-2.33,0.54
					c-0.67,0.36-1.24,0.82-1.7,1.4c-0.46,0.58-0.81,1.23-1.04,1.95c-0.23,0.72-0.35,1.45-0.35,2.2c0,0.81,0.14,1.59,0.42,2.33
					c0.28,0.74,0.67,1.4,1.15,1.97c0.49,0.57,1.06,1.02,1.73,1.36c0.67,0.34,1.39,0.51,2.18,0.51c0.41,0,0.84-0.05,1.27-0.16
					c0.43-0.1,0.85-0.27,1.26-0.49c0.41-0.23,0.78-0.51,1.12-0.85s0.63-0.75,0.87-1.23l1.2,0.62c-0.23,0.55-0.56,1.03-0.99,1.45
					c-0.43,0.42-0.9,0.77-1.42,1.06c-0.52,0.29-1.08,0.51-1.66,0.66c-0.58,0.15-1.16,0.23-1.72,0.23c-1,0-1.93-0.22-2.76-0.66
					c-0.84-0.44-1.56-1.01-2.16-1.72c-0.61-0.71-1.08-1.51-1.41-2.41C343.76,80.91,343.6,79.99,343.6,79.06z"/>
				<path d="M369,73.12h-5.22v13.36h-1.44V73.12h-5.21v-1.28H369V73.12z"/>
				<path d="M371.24,86.48V71.84h6.16c0.63,0,1.22,0.13,1.75,0.4c0.54,0.27,1,0.62,1.38,1.05c0.38,0.43,0.68,0.92,0.9,1.47
					c0.21,0.55,0.32,1.11,0.32,1.67c0,0.54-0.08,1.05-0.24,1.54c-0.16,0.49-0.38,0.93-0.67,1.32c-0.29,0.39-0.63,0.72-1.03,0.99
					c-0.4,0.27-0.85,0.45-1.34,0.55l3.61,5.65h-1.63l-3.46-5.4h-4.33v5.4H371.24z M372.67,79.8h4.8c0.43,0,0.81-0.09,1.16-0.28
					c0.35-0.19,0.65-0.44,0.9-0.75c0.25-0.32,0.44-0.67,0.58-1.07c0.14-0.4,0.21-0.82,0.21-1.26c0-0.44-0.08-0.86-0.24-1.27
					s-0.37-0.76-0.64-1.06s-0.58-0.54-0.95-0.72c-0.36-0.18-0.75-0.27-1.14-0.27h-4.68V79.8z"/>
				<path d="M384.85,86.48V71.86h1.42v14.62H384.85z"/>
				<path d="M389.04,79.06c0-0.88,0.15-1.76,0.46-2.63c0.31-0.87,0.76-1.65,1.35-2.34s1.32-1.25,2.19-1.68s1.85-0.65,2.95-0.65
					c1.3,0,2.42,0.3,3.34,0.89c0.92,0.59,1.61,1.36,2.06,2.31l-1.15,0.7c-0.23-0.48-0.52-0.89-0.85-1.22
					c-0.33-0.33-0.69-0.6-1.07-0.8s-0.78-0.35-1.2-0.44c-0.41-0.09-0.82-0.13-1.22-0.13c-0.88,0-1.66,0.18-2.33,0.54
					c-0.67,0.36-1.24,0.82-1.7,1.4c-0.46,0.58-0.81,1.23-1.04,1.95c-0.23,0.72-0.35,1.45-0.35,2.2c0,0.81,0.14,1.59,0.42,2.33
					c0.28,0.74,0.67,1.4,1.15,1.97c0.49,0.57,1.06,1.02,1.73,1.36c0.67,0.34,1.39,0.51,2.18,0.51c0.41,0,0.84-0.05,1.27-0.16
					c0.43-0.1,0.85-0.27,1.26-0.49c0.41-0.23,0.78-0.51,1.12-0.85s0.63-0.75,0.87-1.23l1.2,0.62c-0.23,0.55-0.56,1.03-0.99,1.45
					c-0.43,0.42-0.9,0.77-1.42,1.06c-0.52,0.29-1.08,0.51-1.66,0.66c-0.58,0.15-1.16,0.23-1.72,0.23c-1,0-1.93-0.22-2.76-0.66
					c-0.84-0.44-1.56-1.01-2.16-1.72c-0.61-0.71-1.08-1.51-1.41-2.41C389.2,80.91,389.04,79.99,389.04,79.06z"/>
				<path d="M402.44,86.48l6.12-14.64h1.17l6.12,14.64h-1.55l-1.9-4.58h-6.58l-1.88,4.58H402.44z M409.16,73.53l-3.01,7.24h5.94
					L409.16,73.53z"/>
				<path d="M426.35,74.58c-0.41-0.47-0.97-0.84-1.66-1.13c-0.7-0.29-1.47-0.43-2.34-0.43c-1.31,0-2.25,0.24-2.85,0.73
					c-0.59,0.49-0.89,1.15-0.89,1.99c0,0.44,0.08,0.8,0.24,1.08c0.16,0.28,0.4,0.53,0.74,0.73c0.34,0.21,0.76,0.38,1.28,0.54
					c0.52,0.15,1.12,0.3,1.82,0.45c0.78,0.17,1.48,0.35,2.1,0.55c0.62,0.2,1.15,0.45,1.59,0.76c0.44,0.31,0.78,0.69,1.01,1.13
					c0.23,0.45,0.35,1,0.35,1.66c0,0.67-0.13,1.26-0.39,1.75c-0.26,0.49-0.62,0.91-1.09,1.24c-0.47,0.33-1.02,0.57-1.67,0.73
					c-0.64,0.16-1.35,0.24-2.1,0.24c-2.3,0-4.25-0.71-5.88-2.12l0.7-1.17c0.54,0.56,1.26,1.04,2.16,1.43
					c0.91,0.39,1.92,0.59,3.03,0.59c1.17,0,2.08-0.21,2.74-0.63s0.99-1.05,0.99-1.91c0-0.45-0.09-0.83-0.28-1.14
					c-0.19-0.31-0.46-0.58-0.83-0.8s-0.84-0.42-1.39-0.59s-1.2-0.33-1.93-0.5c-0.77-0.18-1.44-0.36-2.02-0.56
					c-0.58-0.19-1.06-0.43-1.45-0.72c-0.39-0.29-0.69-0.64-0.89-1.04c-0.2-0.41-0.3-0.9-0.3-1.49c0-0.67,0.13-1.28,0.38-1.8
					c0.25-0.53,0.61-0.97,1.07-1.32s1.01-0.62,1.65-0.8c0.64-0.19,1.34-0.28,2.11-0.28c0.96,0,1.83,0.15,2.59,0.44
					c0.76,0.3,1.45,0.71,2.07,1.25L426.35,74.58z"/>
			</g>
			<g>
				<g>
					<path class="st24" d="M167.67,60.65l14.02-35.55h5.61l13.97,35.55h-7.31l-3.25-8.86h-12.47l-3.25,8.86H167.67z M184.49,32.56
						l-5.11,14.37h10.06L184.49,32.56z"/>
					<path class="st24" d="M205.07,60.65V25.1h15.72c1.63,0,3.14,0.34,4.53,1.03c1.38,0.68,2.58,1.59,3.58,2.7
						c1,1.12,1.79,2.39,2.35,3.8c0.57,1.42,0.85,2.85,0.85,4.28c0,2.3-0.58,4.4-1.73,6.28c-1.15,1.89-2.71,3.25-4.68,4.08
						l8.36,13.37h-7.81l-7.46-11.92h-6.81v11.92H205.07z M211.98,42.68h8.66c0.63,0,1.23-0.15,1.78-0.45s1.03-0.71,1.43-1.23
						s0.72-1.13,0.95-1.83c0.23-0.7,0.35-1.45,0.35-2.25c0-0.83-0.13-1.6-0.4-2.3c-0.27-0.7-0.63-1.31-1.08-1.83
						c-0.45-0.52-0.97-0.92-1.55-1.2s-1.18-0.43-1.78-0.43h-8.36V42.68z"/>
					<path class="st24" d="M238.81,60.65v-35.5h6.91v35.5H238.81z"/>
					<path class="st24" d="M277.82,54.59v6.06h-24.69V25.1h24.23v6.06h-17.32v8.56h14.97v5.61h-14.97v9.26H277.82z"/>
					<path class="st24" d="M283.38,60.65V25.1h6.91v29.49h18.12v6.06H283.38z"/>
					<path class="st24" d="M323.48,60.65V25.1h12.92c2.9,0,5.45,0.47,7.64,1.4c2.19,0.93,4.01,2.2,5.48,3.8
						c1.47,1.6,2.57,3.48,3.3,5.63c0.73,2.15,1.1,4.45,1.1,6.88c0,2.7-0.41,5.15-1.23,7.34c-0.82,2.19-2,4.06-3.53,5.61
						c-1.54,1.55-3.38,2.75-5.53,3.61c-2.15,0.85-4.56,1.28-7.24,1.28H323.48z M346.97,42.83c0-1.7-0.23-3.27-0.7-4.71
						c-0.47-1.44-1.15-2.67-2.05-3.71c-0.9-1.04-2.01-1.84-3.33-2.4c-1.32-0.57-2.81-0.85-4.48-0.85h-6.01v23.43h6.01
						c1.7,0,3.21-0.3,4.53-0.9s2.42-1.43,3.3-2.48c0.88-1.05,1.56-2.29,2.03-3.73C346.73,46.05,346.97,44.5,346.97,42.83z"/>
					<path class="st24" d="M359.43,60.65v-35.5h6.91v35.5H359.43z"/>
					<path class="st24" d="M398.44,54.59v6.06h-24.69V25.1h24.23v6.06h-17.32v8.56h14.97v5.61h-14.97v9.26H398.44z"/>
					<path class="st24" d="M401.69,55.44l20.08-24.28h-19.53V25.1h27.49v5.21L410.3,54.59h19.58v6.06h-28.19V55.44z"/>
				</g>
			</g>
		</g>
		<rect x="62.71" y="20.15" class="st10" width="13.23" height="66.55"/>
	</g>
	<polygon class="st22" points="136.53,58.09 145.42,42.5 132.24,92.07 131.66,92.35 131.21,91.56 	"/>
	<polygon class="st22" points="43.19,23.52 57.42,86.65 57.42,50.18 	"/>
	<polygon class="st22" points="62.71,55.09 81.96,86.65 62.71,86.7 	"/>
</g>
</svg>
