<?xml version="1.0" encoding="utf-8"?>
<!-- Generator: Adobe Illustrator 24.3.0, SVG Export Plug-In . SVG Version: 6.00 Build 0)  -->
<svg version="1.1" id="Capa_1" xmlns="http://www.w3.org/2000/svg" xmlns:xlink="http://www.w3.org/1999/xlink" x="0px" y="0px"
	 viewBox="0 0 300 300" style="enable-background:new 0 0 300 300;" xml:space="preserve">
<style type="text/css">
	.st0{opacity:0.88;fill:#FFFFFF;}
	.st1{fill:#0FEFEF;}
	.st2{fill-rule:evenodd;clip-rule:evenodd;fill:#E09B2D;}
	.st3{fill:#6B6B6B;}
	.st4{fill:#1126ED;}
	.st5{fill:#ED9811;}
	.st6{fill:#EF560A;}
	.st7{fill-rule:evenodd;clip-rule:evenodd;fill:#7FEEF7;}
	.st8{fill:#3D56E8;}
	.st9{fill:#7FEEF7;}
	.st10{fill-rule:evenodd;clip-rule:evenodd;fill:#ED9811;}
	.st11{fill-rule:evenodd;clip-rule:evenodd;fill:#F7E037;}
	.st12{fill:#F45338;}
	.st13{fill:#F7E037;}
	.st14{fill-rule:evenodd;clip-rule:evenodd;fill:#F45338;}
	.st15{fill-rule:evenodd;clip-rule:evenodd;fill:none;}
	.st16{fill-rule:evenodd;clip-rule:evenodd;fill:#FFFFFF;stroke:#EF560A;stroke-width:18;stroke-miterlimit:10;}
	.st17{fill-rule:evenodd;clip-rule:evenodd;fill:#FFFFFF;}
	.st18{fill-rule:evenodd;clip-rule:evenodd;fill:#FFFFFF;stroke:#3D56E8;stroke-width:18;stroke-miterlimit:10;}
	.st19{fill-rule:evenodd;clip-rule:evenodd;fill:#DB881B;}
	.st20{fill:#050505;}
	.st21{fill-rule:evenodd;clip-rule:evenodd;fill:#EF560A;}
	.st22{fill:#F2AD49;}
	.st23{fill:#EAA542;}
	.st24{fill:#282828;}
	.st25{fill:#111111;}
	.st26{fill:#212121;}
	.st27{opacity:0.8;fill:#FFFFFF;}
	.st28{fill:none;}
	.st29{fill:#EA8F0C;}
	.st30{fill:#FFFFFF;}
	.st31{fill-rule:evenodd;clip-rule:evenodd;}
</style>
<g>
	<path class="st5" d="M245.52,285.5H54.48c-22.08,0-39.98-17.9-39.98-39.98V54.48c0-22.08,17.9-39.98,39.98-39.98h191.04
		c22.08,0,39.98,17.9,39.98,39.98v191.04C285.5,267.6,267.6,285.5,245.52,285.5z"/>
	<g id="Page-1_2_">
		<g id="Core_1_" transform="translate(-464.000000, -380.000000)">
			<g id="settings_1_" transform="translate(464.000000, 380.000000)">
				<path id="Shape_1_" class="st31" d="M234.27,162.06c0-3.45,1.15-6.89,1.15-11.49c0-4.59,0-8.04-1.15-11.49l24.12-19.53
					c2.3-2.3,2.3-4.59,1.15-6.89l-22.97-40.2c-1.15-1.15-3.45-2.3-6.89-1.15l-28.71,11.49c-5.74-4.59-12.63-8.04-19.53-11.49
					l-4.59-29.86c1.15-3.45-2.3-5.74-4.59-5.74H126.3c-2.3,0-5.74,2.3-5.74,4.59l-4.59,31.01c-6.89,2.3-12.63,6.89-19.53,11.49
					L68.88,71.32c-3.45-1.15-5.74,0-8.04,2.3l-22.97,40.2c-1.15,1.15,0,4.59,2.3,6.89l24.12,18.38c0,3.45-1.15,6.89-1.15,11.49
					c0,4.59,0,8.04,1.15,11.49l-24.12,19.53c-2.3,2.3-2.3,4.59-1.15,6.89l22.97,40.2c1.15,1.15,3.45,2.3,6.89,1.15l28.71-11.49
					c5.74,4.59,12.63,8.04,19.53,11.49l4.59,29.86c0,2.3,2.3,4.59,5.74,4.59h45.94c2.3,0,5.74-2.3,5.74-4.59l4.59-29.86
					c6.89-3.45,13.78-6.89,19.53-11.49l28.71,11.49c2.3,1.15,5.74,0,6.89-2.3l22.97-40.2c1.15-2.3,1.15-5.74-1.15-6.89
					L234.27,162.06L234.27,162.06z M149.27,190.77c-21.82,0-40.2-18.38-40.2-40.2s18.38-40.2,40.2-40.2s40.2,18.38,40.2,40.2
					S171.1,190.77,149.27,190.77L149.27,190.77z"/>
			</g>
		</g>
	</g>
</g>
</svg>
