<?xml version="1.0" encoding="utf-8"?>
<!-- Generator: Adobe Illustrator 24.3.0, SVG Export Plug-In . SVG Version: 6.00 Build 0)  -->
<svg version="1.1" id="Capa_1" xmlns="http://www.w3.org/2000/svg" xmlns:xlink="http://www.w3.org/1999/xlink" x="0px" y="0px"
	 viewBox="0 0 300 300" style="enable-background:new 0 0 300 300;" xml:space="preserve">
<style type="text/css">
	.st0{opacity:0.88;fill:#FFFFFF;}
	.st1{fill:#0FEFEF;}
	.st2{fill-rule:evenodd;clip-rule:evenodd;fill:#E09B2D;}
	.st3{fill:#6B6B6B;}
	.st4{fill:#1126ED;}
	.st5{fill:#ED9811;}
	.st6{fill:#EF560A;}
	.st7{fill-rule:evenodd;clip-rule:evenodd;fill:#7FEEF7;}
	.st8{fill:#3D56E8;}
	.st9{fill:#7FEEF7;}
	.st10{fill-rule:evenodd;clip-rule:evenodd;fill:#ED9811;}
	.st11{fill-rule:evenodd;clip-rule:evenodd;fill:#F7E037;}
	.st12{fill:#F45338;}
	.st13{fill:#F7E037;}
	.st14{fill-rule:evenodd;clip-rule:evenodd;fill:#F45338;}
	.st15{fill-rule:evenodd;clip-rule:evenodd;fill:none;}
	.st16{fill-rule:evenodd;clip-rule:evenodd;fill:#FFFFFF;stroke:#EF560A;stroke-width:18;stroke-miterlimit:10;}
	.st17{fill-rule:evenodd;clip-rule:evenodd;fill:#FFFFFF;}
	.st18{fill-rule:evenodd;clip-rule:evenodd;fill:#FFFFFF;stroke:#3D56E8;stroke-width:18;stroke-miterlimit:10;}
	.st19{fill-rule:evenodd;clip-rule:evenodd;fill:#DB881B;}
	.st20{fill:#050505;}
	.st21{fill-rule:evenodd;clip-rule:evenodd;fill:#EF560A;}
	.st22{fill:#F2AD49;}
	.st23{fill:#EAA542;}
	.st24{fill:#282828;}
	.st25{fill:#111111;}
	.st26{fill:#212121;}
	.st27{opacity:0.8;fill:#FFFFFF;}
	.st28{fill:none;}
	.st29{fill:#EA8F0C;}
	.st30{fill:#FFFFFF;}
	.st31{fill-rule:evenodd;clip-rule:evenodd;}
</style>
<g>
	<path class="st5" d="M242.25,282.23H57.75c-22.08,0-39.98-17.9-39.98-39.98V57.75c0-22.08,17.9-39.98,39.98-39.98h184.49
		c22.08,0,39.98,17.9,39.98,39.98v184.49C282.23,264.33,264.33,282.23,242.25,282.23z"/>
	<g>
		<path class="st28" d="M14.5,14.5h271v271h-271V14.5z"/>
		<path d="M229.04,251.62H70.96c-6.24,0-11.29-5.06-11.29-11.29V138.71H25.79L142.4,32.7c4.31-3.92,10.89-3.92,15.2,0l116.61,106.01
			h-33.88v101.62C240.33,246.57,235.28,251.62,229.04,251.62z M82.25,229.04h135.5V117.9L150,56.31L82.25,117.9V229.04z
			 M104.83,183.88h90.33v22.58h-90.33V183.88z"/>
	</g>
</g>
</svg>
