<?xml version="1.0" encoding="utf-8"?>
<!-- Generator: Adobe Illustrator 24.3.0, SVG Export Plug-In . SVG Version: 6.00 Build 0)  -->
<svg version="1.1" id="Capa_1" xmlns="http://www.w3.org/2000/svg" xmlns:xlink="http://www.w3.org/1999/xlink" x="0px" y="0px"
	 viewBox="0 0 300 300" style="enable-background:new 0 0 300 300;" xml:space="preserve">
<style type="text/css">
	.st0{fill:#FFFFFF;}
	.st1{fill:#ED9811;}
	.st2{opacity:0.88;fill:#FFFFFF;}
	.st3{fill:#0FEFEF;}
	.st4{fill-rule:evenodd;clip-rule:evenodd;fill:#E09B2D;}
	.st5{fill:#6B6B6B;}
	.st6{fill:#1126ED;}
	.st7{fill:#EF560A;}
	.st8{fill-rule:evenodd;clip-rule:evenodd;fill:#7FEEF7;}
	.st9{fill:#3D56E8;}
	.st10{fill:#7FEEF7;}
	.st11{fill-rule:evenodd;clip-rule:evenodd;fill:#ED9811;}
	.st12{fill-rule:evenodd;clip-rule:evenodd;fill:#F7E037;}
	.st13{fill:#F45338;}
	.st14{fill:#F7E037;}
	.st15{fill-rule:evenodd;clip-rule:evenodd;fill:#F45338;}
	.st16{fill-rule:evenodd;clip-rule:evenodd;fill:none;}
	.st17{fill-rule:evenodd;clip-rule:evenodd;fill:#FFFFFF;stroke:#EF560A;stroke-width:18;stroke-miterlimit:10;}
	.st18{fill-rule:evenodd;clip-rule:evenodd;fill:#FFFFFF;}
	.st19{fill-rule:evenodd;clip-rule:evenodd;fill:#FFFFFF;stroke:#3D56E8;stroke-width:18;stroke-miterlimit:10;}
	.st20{fill-rule:evenodd;clip-rule:evenodd;fill:#DB881B;}
	.st21{fill:#050505;}
	.st22{fill-rule:evenodd;clip-rule:evenodd;fill:#EF560A;}
	.st23{fill:#F2AD49;}
	.st24{fill:#EAA542;}
	.st25{fill:#282828;}
	.st26{fill:#111111;}
	.st27{fill:#212121;}
	.st28{opacity:0.8;fill:#FFFFFF;}
	.st29{fill:none;}
	.st30{fill:#EA8F0C;}
	.st31{fill:#1E1E1E;}
	.st32{fill-rule:evenodd;clip-rule:evenodd;}
</style>
<rect class="st0" width="300" height="300"/>
<path class="st29" d="M2.8,234.2h24v24h-24V234.2z"/>
<g>
	<g>
		<g>
			<path class="st1" d="M194.62,31h-89.25C64.31,31,31,64.31,31,105.38v89.25C31,235.69,64.31,269,105.38,269h89.25
				c41.07,0,74.38-33.31,74.38-74.38v-89.25C269,64.31,235.69,31,194.62,31z M246.69,194.62c0,28.71-23.35,52.06-52.06,52.06h-89.25
				c-28.71,0-52.06-23.35-52.06-52.06v-89.25c0-28.71,23.35-52.06,52.06-52.06h89.25c28.71,0,52.06,23.35,52.06,52.06V194.62z"/>
		</g>
	</g>
	<g>
		<g>
			<path class="st1" d="M150,90.5c-32.86,0-59.5,26.64-59.5,59.5s26.64,59.5,59.5,59.5s59.5-26.64,59.5-59.5S182.86,90.5,150,90.5z
				 M150,187.19c-20.5,0-37.19-16.69-37.19-37.19c0-20.51,16.69-37.19,37.19-37.19s37.19,16.67,37.19,37.19
				C187.19,170.5,170.5,187.19,150,187.19z"/>
		</g>
	</g>
	<g>
		<g>
			<circle class="st1" cx="213.96" cy="86.04" r="7.93"/>
		</g>
	</g>
</g>
</svg>
