<?xml version="1.0" encoding="utf-8"?>
<!-- Generator: Adobe Illustrator 24.3.0, SVG Export Plug-In . SVG Version: 6.00 Build 0)  -->
<svg version="1.1" id="Capa_1" xmlns="http://www.w3.org/2000/svg" xmlns:xlink="http://www.w3.org/1999/xlink" x="0px" y="0px"
	 viewBox="0 0 300 300" style="enable-background:new 0 0 300 300;" xml:space="preserve">
<style type="text/css">
	.st0{fill:#FFFFFF;}
	.st1{fill:#ED9811;}
	.st2{opacity:0.88;fill:#FFFFFF;}
	.st3{fill:#0FEFEF;}
	.st4{fill-rule:evenodd;clip-rule:evenodd;fill:#E09B2D;}
	.st5{fill:#6B6B6B;}
	.st6{fill:#1126ED;}
	.st7{fill:#EF560A;}
	.st8{fill-rule:evenodd;clip-rule:evenodd;fill:#7FEEF7;}
	.st9{fill:#3D56E8;}
	.st10{fill:#7FEEF7;}
	.st11{fill-rule:evenodd;clip-rule:evenodd;fill:#ED9811;}
	.st12{fill-rule:evenodd;clip-rule:evenodd;fill:#F7E037;}
	.st13{fill:#F45338;}
	.st14{fill:#F7E037;}
	.st15{fill-rule:evenodd;clip-rule:evenodd;fill:#F45338;}
	.st16{fill-rule:evenodd;clip-rule:evenodd;fill:none;}
	.st17{fill-rule:evenodd;clip-rule:evenodd;fill:#FFFFFF;stroke:#EF560A;stroke-width:18;stroke-miterlimit:10;}
	.st18{fill-rule:evenodd;clip-rule:evenodd;fill:#FFFFFF;}
	.st19{fill-rule:evenodd;clip-rule:evenodd;fill:#FFFFFF;stroke:#3D56E8;stroke-width:18;stroke-miterlimit:10;}
	.st20{fill-rule:evenodd;clip-rule:evenodd;fill:#DB881B;}
	.st21{fill:#050505;}
	.st22{fill-rule:evenodd;clip-rule:evenodd;fill:#EF560A;}
	.st23{fill:#F2AD49;}
	.st24{fill:#EAA542;}
	.st25{fill:#282828;}
	.st26{fill:#111111;}
	.st27{fill:#212121;}
	.st28{opacity:0.8;fill:#FFFFFF;}
	.st29{fill:none;}
	.st30{fill:#EA8F0C;}
	.st31{fill:#1E1E1E;}
	.st32{fill-rule:evenodd;clip-rule:evenodd;}
</style>
<rect class="st0" width="300" height="300"/>
<path class="st29" d="M2.8,234.2h24v24h-24V234.2z"/>
<path class="st1" d="M95.5,224.56l8.31,4.86c14.02,8.18,29.96,12.47,46.19,12.43c50.73,0,91.85-41.12,91.85-91.85
	S200.73,58.15,150,58.15S58.15,99.27,58.15,150c0,16.49,4.33,32.3,12.45,46.2l4.85,8.31l-7.5,27.57L95.5,224.56z M35.23,264.81
	l15.52-57.04C40.53,190.24,35.15,170.3,35.19,150c0-63.41,51.4-114.81,114.81-114.81S264.81,86.59,264.81,150
	S213.41,264.81,150,264.81c-20.29,0.03-40.22-5.34-57.75-15.56L35.23,264.81z M108.56,96.13c1.54-0.11,3.09-0.11,4.63-0.05
	c0.62,0.05,1.24,0.11,1.86,0.18c1.83,0.21,3.83,1.32,4.51,2.86c3.42,7.76,6.75,15.58,9.97,23.42c0.71,1.75,0.29,3.98-1.07,6.17
	c-0.93,1.48-1.94,2.9-3.02,4.27c-1.3,1.66-4.09,4.72-4.09,4.72s-1.14,1.35-0.7,3.04c0.16,0.64,0.69,1.57,1.17,2.35l0.68,1.09
	c2.94,4.9,6.89,9.87,11.71,14.56c1.38,1.33,2.72,2.7,4.17,3.97c5.37,4.74,11.46,8.61,18.03,11.48l0.06,0.02
	c0.98,0.42,1.47,0.65,2.89,1.26c0.71,0.3,1.45,0.56,2.19,0.76c1.58,0.4,3.24-0.19,4.21-1.49c8.31-10.07,9.07-10.72,9.14-10.72v0.02
	c1.17-1.09,2.75-1.62,4.34-1.46c0.69,0.05,1.39,0.17,2.03,0.46c6.1,2.79,16.07,7.14,16.07,7.14l6.68,3
	c1.13,0.54,2.15,1.81,2.18,3.04c0.05,0.77,0.11,2.01-0.15,4.28c-0.37,2.97-1.26,6.54-2.16,8.42c-0.61,1.28-1.43,2.45-2.41,3.47
	c-1.16,1.22-2.43,2.32-3.79,3.31c-0.47,0.35-0.95,0.7-1.44,1.03c-1.43,0.91-2.9,1.75-4.4,2.53c-2.96,1.57-6.22,2.47-9.56,2.64
	c-2.12,0.11-4.25,0.28-6.38,0.16c-0.09,0-6.52-1-6.52-1c-16.32-4.29-31.42-12.34-44.09-23.49c-2.59-2.28-4.99-4.74-7.45-7.19
	c-10.22-10.16-17.93-21.13-22.62-31.48c-2.4-5.08-3.69-10.62-3.8-16.23c-0.05-6.97,2.23-13.76,6.48-19.29c0.84-1.08,1.63-2.2,3-3.5
	c1.46-1.38,2.38-2.11,3.38-2.62c1.33-0.67,2.78-1.06,4.26-1.15L108.56,96.13z"/>
</svg>
