<?xml version="1.0" encoding="utf-8"?>
<!-- Generator: Adobe Illustrator 24.3.0, SVG Export Plug-In . SVG Version: 6.00 Build 0)  -->
<svg version="1.1" id="Capa_1" xmlns="http://www.w3.org/2000/svg" xmlns:xlink="http://www.w3.org/1999/xlink" x="0px" y="0px"
	 viewBox="0 0 300 300" style="enable-background:new 0 0 300 300;" xml:space="preserve">
<style type="text/css">
	.st0{opacity:0.88;fill:#FFFFFF;}
	.st1{fill:#0FEFEF;}
	.st2{fill-rule:evenodd;clip-rule:evenodd;fill:#E09B2D;}
	.st3{fill:#6B6B6B;}
	.st4{fill:#1126ED;}
	.st5{fill:#ED9811;}
	.st6{fill:#EF560A;}
	.st7{fill-rule:evenodd;clip-rule:evenodd;fill:#7FEEF7;}
	.st8{fill:#3D56E8;}
	.st9{fill:#7FEEF7;}
	.st10{fill-rule:evenodd;clip-rule:evenodd;fill:#ED9811;}
	.st11{fill-rule:evenodd;clip-rule:evenodd;fill:#F7E037;}
	.st12{fill:#F45338;}
	.st13{fill:#F7E037;}
	.st14{fill-rule:evenodd;clip-rule:evenodd;fill:#F45338;}
	.st15{fill-rule:evenodd;clip-rule:evenodd;fill:none;}
	.st16{fill-rule:evenodd;clip-rule:evenodd;fill:#FFFFFF;stroke:#EF560A;stroke-width:18;stroke-miterlimit:10;}
	.st17{fill-rule:evenodd;clip-rule:evenodd;fill:#FFFFFF;}
	.st18{fill-rule:evenodd;clip-rule:evenodd;fill:#FFFFFF;stroke:#3D56E8;stroke-width:18;stroke-miterlimit:10;}
	.st19{fill-rule:evenodd;clip-rule:evenodd;fill:#DB881B;}
	.st20{fill:#050505;}
	.st21{fill-rule:evenodd;clip-rule:evenodd;fill:#EF560A;}
	.st22{fill:#F2AD49;}
	.st23{fill:#EAA542;}
	.st24{fill:#282828;}
	.st25{fill:#111111;}
	.st26{fill:#212121;}
	.st27{opacity:0.8;fill:#FFFFFF;}
	.st28{fill:none;}
	.st29{fill:#EA8F0C;}
	.st30{fill:#FFFFFF;}
	.st31{fill-rule:evenodd;clip-rule:evenodd;}
</style>
<g>
	<path class="st5" d="M245.52,285.5H54.48c-22.08,0-39.98-17.9-39.98-39.98V54.48c0-22.08,17.9-39.98,39.98-39.98h191.04
		c22.08,0,39.98,17.9,39.98,39.98v191.04C285.5,267.6,267.6,285.5,245.52,285.5z"/>
	<g id="Page-1_3_">
		<g id="Dribbble-Light-Preview_2_" transform="translate(-143.000000, -5199.000000)">
			<g id="icons_2_" transform="translate(56.000000, 160.000000)">
				<path id="light_x5F_bulb-_x5B__x23_676_x5D__2_" class="st31" d="M191.03,5123.68c10.6-15.16,27.24-23.86,45.65-23.86
					c18.4,0,35.04,8.69,45.63,23.86c10.61,15.16,13.13,33.86,6.95,51.33l-12.87,36.28h-79.44l-12.87-36.28
					C177.9,5157.55,180.43,5138.84,191.03,5123.68L191.03,5123.68z M270.52,5233.59h-66.38v44.59h66.38V5233.59z M163.58,5182.51
					l18.43,51.07v66.88h110.63v-66.88l17.78-51.07c18.13-51.16-19.5-104.98-73.41-104.98
					C183.08,5077.53,145.45,5131.35,163.58,5182.51L163.58,5182.51z"/>
			</g>
		</g>
	</g>
</g>
</svg>
