<?xml version="1.0" encoding="utf-8"?>
<!-- Generator: Adobe Illustrator 24.3.0, SVG Export Plug-In . SVG Version: 6.00 Build 0)  -->
<svg version="1.1" id="Capa_1" xmlns="http://www.w3.org/2000/svg" xmlns:xlink="http://www.w3.org/1999/xlink" x="0px" y="0px"
	 viewBox="0 0 300 300" style="enable-background:new 0 0 300 300;" xml:space="preserve">
<style type="text/css">
	.st0{fill:#FFFFFF;}
	.st1{fill:#ED9811;}
	.st2{opacity:0.88;fill:#FFFFFF;}
	.st3{fill:#0FEFEF;}
	.st4{fill-rule:evenodd;clip-rule:evenodd;fill:#E09B2D;}
	.st5{fill:#6B6B6B;}
	.st6{fill:#1126ED;}
	.st7{fill:#EF560A;}
	.st8{fill-rule:evenodd;clip-rule:evenodd;fill:#7FEEF7;}
	.st9{fill:#3D56E8;}
	.st10{fill:#7FEEF7;}
	.st11{fill-rule:evenodd;clip-rule:evenodd;fill:#ED9811;}
	.st12{fill-rule:evenodd;clip-rule:evenodd;fill:#F7E037;}
	.st13{fill:#F45338;}
	.st14{fill:#F7E037;}
	.st15{fill-rule:evenodd;clip-rule:evenodd;fill:#F45338;}
	.st16{fill-rule:evenodd;clip-rule:evenodd;fill:none;}
	.st17{fill-rule:evenodd;clip-rule:evenodd;fill:#FFFFFF;stroke:#EF560A;stroke-width:18;stroke-miterlimit:10;}
	.st18{fill-rule:evenodd;clip-rule:evenodd;fill:#FFFFFF;}
	.st19{fill-rule:evenodd;clip-rule:evenodd;fill:#FFFFFF;stroke:#3D56E8;stroke-width:18;stroke-miterlimit:10;}
	.st20{fill-rule:evenodd;clip-rule:evenodd;fill:#DB881B;}
	.st21{fill:#050505;}
	.st22{fill-rule:evenodd;clip-rule:evenodd;fill:#EF560A;}
	.st23{fill:#F2AD49;}
	.st24{fill:#EAA542;}
	.st25{fill:#282828;}
	.st26{fill:#111111;}
	.st27{fill:#212121;}
	.st28{opacity:0.8;fill:#FFFFFF;}
	.st29{fill:none;}
	.st30{fill:#EA8F0C;}
	.st31{fill:#1E1E1E;}
	.st32{fill-rule:evenodd;clip-rule:evenodd;}
</style>
<rect class="st0" width="300" height="300"/>
<path class="st29" d="M2.8,234.2h24v24h-24V234.2z"/>
<g>
	<g>
		<path class="st1" d="M248.72,58.87h-7.59H58.87h-7.59c-12.58,0-22.78,10.21-22.78,22.78v7.59v121.5v7.59
			c0,12.58,10.21,22.78,22.78,22.78h7.59h182.26h7.59c12.58,0,22.78-10.21,22.78-22.78v-7.59V89.25v-7.59
			C271.5,69.08,261.3,58.87,248.72,58.87z M221.9,74.06L150,130.83L78.1,74.06H221.9z M241.13,225.94H58.87V99.06L150,169.15
			l91.13-70.11V225.94z"/>
	</g>
</g>
</svg>
